
        <svg xmlns="http://www.w3.org/2000/svg" xmlns:xlink="http://www.w3.org/1999/xlink" version="1.1" width="3157.48031496063" 
        height="749.3784903205807" viewBox="0 0 3157.48031496063 749.3784903205807">
			<rect fill="#fff" width="3157.48031496063" height="749.3784903205807"/>
			<g transform="scale(7.874015748031496) translate(10, 10)">
				<defs id="SvgjsDefs2107"></defs><g id="SvgjsG2108" featureKey="UqkkrJ-0" transform="matrix(0.09123388483503951,0,0,0.09123388483503951,-2.0767111991486917,-7.378569392100784)" fill="#8e0b0b"><path xmlns="http://www.w3.org/2000/svg" display="none" d="M888.622,821.517H1000v-644H888.622c-11.573,0-20.622-6.985-20.622-16.597V93.591  c0-9.611,9.049-18.074,20.622-18.074h100.53c-19.549-44-63.462-74-114.518-74h-745.27c-51.054,0-94.97,30-114.518,74h100.53  c11.573,0,20.623,8.463,20.623,18.074v67.329c0,9.612-9.05,16.597-20.623,16.597H4v644h111.377c11.573,0,20.623,7.73,20.623,17.345  v67.329c0,9.611-9.05,17.326-20.623,17.326H14.847c19.548,44,63.464,74,114.518,74h745.27c51.056,0,94.969-30,114.518-74h-100.53  c-11.573,0-20.622-7.715-20.622-17.326v-67.329C868,829.247,877.049,821.517,888.622,821.517z M437,160.104  c0,9.617-9.381,17.413-20.953,17.413H287.953c-11.572,0-20.953-7.796-20.953-17.413V92.93c0-9.617,9.381-17.413,20.953-17.413  h128.094c11.572,0,20.953,7.796,20.953,17.413V160.104z M654.119,479.019c30.541,22.207,2.738,47.188,2.738,47.188L390.293,678.883  C337.555,706.639,336,655.282,336,655.282V347.167c1-54.13,51.494-26.375,51.494-26.375L654.119,479.019z M437,906.104  c0,9.617-9.381,17.413-20.953,17.413H287.953c-11.572,0-20.953-7.796-20.953-17.413V838.93c0-9.617,9.381-17.413,20.953-17.413  h128.094c11.572,0,20.953,7.796,20.953,17.413V906.104z M738,906.104c0,9.617-9.381,17.413-20.953,17.413H588.953  c-11.572,0-20.953-7.796-20.953-17.413V838.93c0-9.617,9.381-17.413,20.953-17.413h128.094c11.572,0,20.953,7.796,20.953,17.413  V906.104z M738,160.104c0,9.617-9.381,17.413-20.953,17.413H588.953c-11.572,0-20.953-7.796-20.953-17.413V92.93  c0-9.617,9.381-17.413,20.953-17.413h128.094c11.572,0,20.953,7.796,20.953,17.413V160.104z"></path><path xmlns="http://www.w3.org/2000/svg" display="none" d="M1004,114.086c0-44.498-36.072-80.57-80.57-80.57H80.57C36.073,33.517,0,69.589,0,114.086v770.86  c0,44.498,36.073,80.57,80.57,80.57H923.43c44.498,0,80.57-36.072,80.57-80.57V114.086z M918.715,86.906  c18.25,0,33.051,14.8,33.051,33.06c0,18.25-14.801,33.05-33.051,33.05c-18.26,0-33.06-14.8-33.06-33.05  C885.655,101.706,900.455,86.906,918.715,86.906z M807.155,86.906c18.26,0,33.06,14.8,33.06,33.06c0,18.25-14.8,33.05-33.06,33.05  c-18.25,0-33.05-14.8-33.05-33.05C774.105,101.706,788.905,86.906,807.155,86.906z M695.605,86.906c18.25,0,33.05,14.8,33.05,33.06  c0,18.25-14.8,33.05-33.05,33.05c-18.26,0-33.061-14.8-33.061-33.05C662.545,101.706,677.346,86.906,695.605,86.906z M952,878.427  c0,18.827-15.263,34.09-34.09,34.09H87.09c-18.827,0-34.09-15.263-34.09-34.09v-638.82c0-18.827,15.263-34.09,34.09-34.09h830.82  c18.827,0,34.09,15.263,34.09,34.09V878.427z"></path><path xmlns="http://www.w3.org/2000/svg" display="none" d="M662.285,622.846l-275.272,157.7c-54.47,28.67-56.013-24.37-56.013-24.37v-318.26  c1-55.92,53.123-27.25,53.123-27.25l275.221,163.44C690.894,597.046,662.285,622.846,662.285,622.846z"></path><path xmlns="http://www.w3.org/2000/svg" display="none" d="M889.315,821.517H1000v-644H889.315c-11.57,0-21.315-6.981-21.315-16.601v-67.32  c0-9.62,9.745-18.079,21.315-18.079h100.53c-19.551-44-63.46-74-114.521-74h-745.27c-51.05,0-94.96,30-114.51,74h100.53  c11.57,0,19.925,8.459,19.925,18.079v67.32c0,9.62-8.354,16.601-19.925,16.601H4v644h112.075c11.57,0,19.925,7.729,19.925,17.35  v67.319c0,9.62-8.354,17.331-19.925,17.331H15.545c19.55,44,63.46,74,114.51,74h745.27c51.061,0,94.97-30,114.521-74h-100.53  c-11.57,0-21.315-7.711-21.315-17.331v-67.319C868,829.246,877.745,821.517,889.315,821.517z M738,160.106  c0,9.615-9.38,17.41-20.95,17.41h-128.1c-11.57,0-20.95-7.795-20.95-17.41v-67.18c0-9.615,9.38-17.41,20.95-17.41h128.1  c11.57,0,20.95,7.795,20.95,17.41V160.106z M437,160.106c0,9.615-9.38,17.41-20.95,17.41h-128.1c-11.57,0-20.95-7.795-20.95-17.41  v-67.18c0-9.615,9.38-17.41,20.95-17.41h128.1c11.57,0,20.95,7.795,20.95,17.41V160.106z M661,696.517c0,18.226-14.774,33-33,33H98  c-18.226,0-33-14.774-33-33v-394c0-18.226,14.774-33,33-33h530c18.226,0,33,14.774,33,33V696.517z M437,906.106  c0,9.615-9.38,17.41-20.95,17.41h-128.1c-11.57,0-20.95-7.795-20.95-17.41v-67.18c0-9.615,9.38-17.41,20.95-17.41h128.1  c11.57,0,20.95,7.795,20.95,17.41V906.106z M738,906.106c0,9.615-9.38,17.41-20.95,17.41h-128.1c-11.57,0-20.95-7.795-20.95-17.41  v-67.18c0-9.615,9.38-17.41,20.95-17.41h128.1c11.57,0,20.95,7.795,20.95,17.41V906.106z M940,696.517c0,18.226-14.774,33-33,33H753  c-18.226,0-33-14.774-33-33v-394c0-18.226,14.774-33,33-33h154c18.226,0,33,14.774,33,33V696.517z"></path><path xmlns="http://www.w3.org/2000/svg" display="none" d="M997,121.817c0-64.231-52.069-116.3-116.3-116.3H124.3C60.069,5.517,8,57.586,8,121.817v756.399  c0,64.231,52.069,116.301,116.3,116.301h756.4c64.23,0,116.3-52.069,116.3-116.301V121.817z M924,865.271  c0,29.406-23.839,53.245-53.245,53.245h-735.51c-29.406,0-53.245-23.839-53.245-53.245v-729.51  c0-29.406,23.839-53.245,53.245-53.245h735.51c29.406,0,53.245,23.839,53.245,53.245V865.271z"></path><path xmlns="http://www.w3.org/2000/svg" display="none" d="M682.563,530.385L371.986,708.45C310.488,740.827,309,680.937,309,680.937V321.561  c1-63.136,59.73-30.759,59.73-30.759l310.643,184.546C714.996,501.253,682.563,530.385,682.563,530.385z"></path><path xmlns="http://www.w3.org/2000/svg" display="none" d="M761.26,534.853L400.366,741.653C328.936,779.251,327,709.696,327,709.696V292.342  c2-73.331,69.576-35.734,69.576-35.734l360.871,214.329C798.818,501.021,761.26,534.853,761.26,534.853z"></path><path xmlns="http://www.w3.org/2000/svg" display="none" d="M502.44,0.266c-275.928,0-499.61,223.692-499.61,499.621c0,275.928,223.682,499.619,499.61,499.619  c275.928,0,499.62-223.691,499.62-499.619C1002.061,223.958,778.368,0.266,502.44,0.266z M502.44,933.438  c-239.445,0-433.552-194.106-433.552-433.552c0-239.446,194.107-433.552,433.552-433.552c239.446,0,433.553,194.106,433.553,433.552  C935.993,739.332,741.887,933.438,502.44,933.438z"></path><path xmlns="http://www.w3.org/2000/svg" display="none" d="M502.44,0.266c-275.928,0-499.61,223.692-499.61,499.621c0,275.928,223.682,499.619,499.61,499.619  c275.928,0,499.62-223.691,499.62-499.619C1002.061,223.958,778.368,0.266,502.44,0.266z M502.44,933.438  c-239.445,0-433.552-194.106-433.552-433.552c0-239.446,194.107-433.552,433.552-433.552c239.446,0,433.553,194.106,433.553,433.552  C935.993,739.332,741.887,933.438,502.44,933.438z"></path><path xmlns="http://www.w3.org/2000/svg" display="none" d="M421,676.517c0,29.823-24.177,54-54,54l0,0c-29.823,0-54-24.177-54-54v-354c0-29.823,24.177-54,54-54l0,0  c29.823,0,54,24.177,54,54V676.517z"></path><path xmlns="http://www.w3.org/2000/svg" display="none" d="M692,676.517c0,29.823-24.177,54-54,54l0,0c-29.823,0-54-24.177-54-54v-354c0-29.823,24.177-54,54-54l0,0  c29.823,0,54,24.177,54,54V676.517z"></path><path xmlns="http://www.w3.org/2000/svg" display="none" fill="#8e0b0b" d="M502.445,3.294C228.176,3.294,5.854,225.617,5.854,499.885  c0,274.273,222.323,496.593,496.592,496.593c274.271,0,496.592-222.319,496.592-496.593  C999.037,225.617,776.717,3.294,502.445,3.294z M753.979,206.249c73.93,0,133.863,59.936,133.863,133.864  c0,73.928-59.934,133.863-133.863,133.863c-73.927,0-133.863-59.935-133.863-133.863  C620.116,266.185,680.053,206.249,753.979,206.249z M86.819,502.044c0-73.928,59.937-133.862,133.864-133.862  c73.928,0,133.864,59.935,133.864,133.862c0,73.929-59.936,133.864-133.864,133.864C146.756,635.908,86.819,575.973,86.819,502.044z   M412.844,918.751c-73.929,0-133.865-59.935-133.865-133.864c0-73.927,59.936-133.864,133.865-133.864  c73.927,0,133.862,59.938,133.862,133.864C546.706,858.816,486.771,918.751,412.844,918.751z M502.445,545.228  c-25.045,0-45.341-20.297-45.341-45.343c0-25.042,20.296-45.34,45.341-45.34c25.046,0,45.342,20.297,45.342,45.34  C547.787,524.931,527.491,545.228,502.445,545.228z M423.638,355.227c-73.928,0-133.864-59.937-133.864-133.865  c0-73.928,59.936-133.864,133.864-133.864c73.929,0,133.864,59.936,133.864,133.864C557.502,295.29,497.567,355.227,423.638,355.227  z M749.662,810.794c-73.928,0-133.864-59.932-133.864-133.861s59.937-133.863,133.864-133.863  c73.926,0,133.863,59.934,133.863,133.863S823.588,810.794,749.662,810.794z"></path><g xmlns="http://www.w3.org/2000/svg" display="none"><g display="inline"><path d="M533.919,996.219c32.47,0,64.94,0,97.411,0c64.087,0,128.174,0,192.261,0c45.717,0,91.435,0,137.151,0    c2.71,0,5.42,0,8.131,0c16.343,0,30.113-13.367,30.223-29.791c0.107-16.261-13.446-30.223-29.791-30.223    c-32.47,0-64.94,0-97.411,0c-64.087,0-128.174,0-192.261,0c-45.717,0-91.435,0-137.151,0c-2.71,0-5.42,0-8.131,0    c-16.343,0-30.113,13.367-30.223,29.791C504.021,982.257,517.574,996.219,533.919,996.219L533.919,996.219z"></path></g></g><path xmlns="http://www.w3.org/2000/svg" display="none" d="M149.255,157.971l68.286,97.153l-159.957,35.1l-13.788-62.833c-5.351-24.386,11.42-48.785,37.487-54.504  L149.255,157.971z"></path><polygon xmlns="http://www.w3.org/2000/svg" display="none" points="397.037,103.6 465.322,200.752 322.543,232.083 254.259,134.931 "></polygon><polygon xmlns="http://www.w3.org/2000/svg" display="none" points="644.819,49.229 713.104,146.381 570.325,177.711 502.04,80.56 "></polygon><path xmlns="http://www.w3.org/2000/svg" display="none" d="M920.563,35l13.787,62.833L818.107,123.34l-68.286-97.152L863.655,1.209  C889.723-4.511,915.211,10.615,920.563,35z"></path><polygon xmlns="http://www.w3.org/2000/svg" display="none" points="58,318.517 222.339,318.517 176.418,427.517 58,427.517 "></polygon><polygon xmlns="http://www.w3.org/2000/svg" display="none" points="330.829,318.517 478.348,318.517 432.426,427.517 284.897,427.517 "></polygon><polygon xmlns="http://www.w3.org/2000/svg" display="none" points="586.836,318.517 734.355,318.517 688.433,427.517 540.906,427.517 "></polygon><polygon xmlns="http://www.w3.org/2000/svg" display="none" points="962,318.517 962,427.517 796.913,427.517 842.844,318.517 "></polygon><path xmlns="http://www.w3.org/2000/svg" display="none" d="M57,459.517v422.745c0,64.81,52.609,117.255,117.419,117.255h669.809  c64.811,0,117.771-52.445,117.771-117.255V459.517H57z M663.389,755.252l-264.584,151.59C346.444,934.401,345,883.411,345,883.411  v-305.93c1-53.76,51.035-26.2,51.035-26.2l264.541,157.11C690.906,730.451,663.389,755.252,663.389,755.252z"></path><path xmlns="http://www.w3.org/2000/svg" display="none" d="M696.668,351.361c0.756-89.557-71.23-162.769-160.787-163.525l-357.043-3.012  C89.281,184.069,16.07,256.056,15.313,345.611l-2.555,302.802c-0.755,89.556,71.231,162.769,160.788,163.522l357.043,3.013  c89.556,0.757,162.769-71.23,163.525-160.787L696.668,351.361z M522.011,523.554L296.205,650.698  c-44.773,23.081-45.133-20.321-45.133-20.321l2.196-260.422c1.71-45.752,43.125-21.943,43.125-21.943L520.2,483.646  C545.869,502.637,522.011,523.554,522.011,523.554z"></path><path xmlns="http://www.w3.org/2000/svg" display="none" d="M733.64,633.229L916.56,742.08c69.713,37.448,72.128-30.72,72.128-30.72l3.45-409.13  c-0.716-71.896-67.852-35.604-67.852-35.604l-188.33,111.865L733.64,633.229z"></path><circle xmlns="http://www.w3.org/2000/svg" fill="none" stroke="#8e0b0b" stroke-width="60" stroke-miterlimit="10" cx="186.264" cy="234.771" r="131.974"></circle><circle xmlns="http://www.w3.org/2000/svg" fill="none" stroke="#8e0b0b" stroke-width="60" stroke-miterlimit="10" cx="528.316" cy="234.771" r="131.974"></circle><path xmlns="http://www.w3.org/2000/svg" d="M22.77,775.784c-0.06,6.58,0.23,13.051,1.23,19.37v-165.09L22.77,775.784z"></path><path xmlns="http://www.w3.org/2000/svg" d="M729.224,780.806l181.745,105.469c69.22,36.212,70.867-31.105,70.867-31.105l-1.023-403.903  c-1.485-70.964-67.364-34.411-67.364-34.411L728.752,529.32L729.224,780.806z"></path><path xmlns="http://www.w3.org/2000/svg" d="M690,503.517c0-51.915-42.085-94-94-94H118c-51.915,0-94,42.085-94,94v297c0,51.914,42.085,94,94,94h478  c51.915,0,94-42.086,94-94V503.517z M496.43,672.097l-186.41,104.971c-36.97,19.05-37.26-16.78-37.26-16.78l1.81-214.99  c1.41-37.77,35.6-18.109,35.6-18.109l184.76,111.97C516.12,654.827,496.43,672.097,496.43,672.097z"></path><path xmlns="http://www.w3.org/2000/svg" display="none" fill="none" stroke="#8e0b0b" stroke-width="60" stroke-miterlimit="10" d="M962,850.812  c0,52.305-42.401,94.705-94.707,94.705H136.707c-52.305,0-94.707-42.4-94.707-94.705v-498.59c0-52.304,42.402-94.705,94.707-94.705  h730.586c52.306,0,94.707,42.401,94.707,94.705V850.812z"></path><path xmlns="http://www.w3.org/2000/svg" display="none" d="M678.084,628.197l-275.172,157.7c-54.47,28.67-55.912-24.37-55.912-24.37v-318.26  c1-55.92,53.022-27.25,53.022-27.25l275.171,163.439C706.742,602.397,678.084,628.197,678.084,628.197z"></path><path xmlns="http://www.w3.org/2000/svg" display="none" fill="none" stroke="#8e0b0b" stroke-width="50" stroke-miterlimit="10" d="M170.726,205.174  c0-37.746,30.727-68.658,68.473-68.658h527.183c37.747,0,68.346,30.692,68.346,68.438"></path><path xmlns="http://www.w3.org/2000/svg" display="none" fill="none" stroke="#8e0b0b" stroke-width="40" stroke-miterlimit="10" d="M325.883,90.174  c0-20.106,16.367-36.657,36.473-36.657h280.809c20.106,0,36.405,16.392,36.405,36.498"></path><path xmlns="http://www.w3.org/2000/svg" display="none" d="M541.51,352.517H282V239.626c0-34.93-27.94-63.109-62.87-63.109H66.61C31.68,176.517,3,204.696,3,239.626  v476.899c0,59.021,48.21,106.991,107.23,106.991h431.28c59.021,0,106.49-47.971,106.49-106.991v-257.28  C648,400.226,600.53,352.517,541.51,352.517z M522,683.856c0,16.934-13.727,30.66-30.66,30.66H161.66  c-16.933,0-30.66-13.727-30.66-30.66v-191.68c0-16.933,13.727-30.66,30.66-30.66h329.68c16.934,0,30.66,13.727,30.66,30.66V683.856z  "></path><path xmlns="http://www.w3.org/2000/svg" display="none" d="M826,239.626v4.36c0,34.93-27.72,63.531-62.64,63.531H445v-38H316v-53h129v-40h318.36  C798.28,176.517,826,204.696,826,239.626z"></path><path xmlns="http://www.w3.org/2000/svg" display="none" d="M1001.521,767.136c0,0-1.45,61.73-64.931,28.53L770,698.945v-0.429h-90v-230h89v-0.171l169.586-103.13  c0,0,60.521-33.52,61.881,31.56L1001.521,767.136z"></path></g><g id="SvgjsG2109" featureKey="0kuQ8p-0" transform="matrix(3.914405152947408,0,0,3.914405152947408,106.82567864076915,-22.8601210909022)" fill="#000000"><path d="M6.1 6 l2.04 0 l-2.3 6.8 l2.46 7.2 l-2.32 0 l-1.78 -5.54 l-0.04 0 l-1.8 5.54 l-2.06 0 l2.46 -7.2 l-2.3 -6.8 l2.28 0 l1.64 5.16 l0.04 0 z M14.7 6 l2.04 0 l-2.3 6.8 l2.46 7.2 l-2.32 0 l-1.78 -5.54 l-0.04 0 l-1.8 5.54 l-2.06 0 l2.46 -7.2 l-2.3 -6.8 l2.28 0 l1.64 5.16 l0.04 0 z M23.299999999999997 6 l2.04 0 l-2.3 6.8 l2.46 7.2 l-2.32 0 l-1.78 -5.54 l-0.04 0 l-1.8 5.54 l-2.06 0 l2.46 -7.2 l-2.3 -6.8 l2.28 0 l1.64 5.16 l0.04 0 z M32.28 20 l-0.78 -7.46 l-0.04 0 l-0.78 7.46 l-3.02 0 l-1.56 -14 l2.14 0 l1.16 11.04 l0.04 0 l1.04 -11.04 l2.12 0 l1.08 11.12 l0.04 0 l1.12 -11.12 l1.92 0 l-1.56 14 l-2.92 0 z M39.879999999999995 9.22 l0 7.56 c0 1 0.44 1.38 1.14 1.38 s1.14 -0.38 1.14 -1.38 l0 -7.56 c0 -1 -0.44 -1.38 -1.14 -1.38 s-1.14 0.38 -1.14 1.38 z M37.67999999999999 16.64 l0 -7.28 c0 -2.24 1.18 -3.52 3.34 -3.52 s3.34 1.28 3.34 3.52 l0 7.28 c0 2.24 -1.18 3.52 -3.34 3.52 s-3.34 -1.28 -3.34 -3.52 z M52.62 20 l-2.24 0 c-0.12 -0.36 -0.2 -0.58 -0.2 -1.72 l0 -2.2 c0 -1.3 -0.44 -1.78 -1.44 -1.78 l-0.76 0 l0 5.7 l-2.2 0 l0 -14 l3.32 0 c2.28 0 3.26 1.06 3.26 3.22 l0 1.1 c0 1.44 -0.46 2.36 -1.44 2.82 l0 0.04 c1.1 0.46 1.46 1.5 1.46 2.96 l0 2.16 c0 0.68 0.02 1.18 0.24 1.7 z M49.04 8 l-1.06 0 l0 4.3 l0.86 0 c0.82 0 1.32 -0.36 1.32 -1.48 l0 -1.38 c0 -1 -0.34 -1.44 -1.12 -1.44 z M53.81999999999999 20 l0 -14 l2.2 0 l0 12 l3.62 0 l0 2 l-5.82 0 z M60.599999999999994 20 l0 -14 l3.48 0 c2.2 0 3.28 1.22 3.28 3.46 l0 7.08 c0 2.24 -1.08 3.46 -3.28 3.46 l-3.48 0 z M64.03999999999999 8 l-1.24 0 l0 10 l1.24 0 c0.7 0 1.12 -0.36 1.12 -1.36 l0 -7.28 c0 -1 -0.42 -1.36 -1.12 -1.36 z"></path></g><g id="SvgjsG2110" featureKey="Nh6iBa-0" transform="matrix(0.6395444179423183,0,0,0.6395444179423183,107.9488363428787,62.26506141650576)" fill="#000000"><path d="M2.86 20 l0 -4.64 l-2.78 -9.36 l2.3 0 l1.66 6.38 l0.04 0 l1.66 -6.38 l2.1 0 l-2.78 9.36 l0 4.64 l-2.2 0 z M19.4679375 9.22 l0 7.56 c0 1 0.44 1.38 1.14 1.38 s1.14 -0.38 1.14 -1.38 l0 -7.56 c0 -1 -0.44 -1.38 -1.14 -1.38 s-1.14 0.38 -1.14 1.38 z M17.267937500000002 16.64 l0 -7.28 c0 -2.24 1.18 -3.52 3.34 -3.52 s3.34 1.28 3.34 3.52 l0 7.28 c0 2.24 -1.18 3.52 -3.34 3.52 s-3.34 -1.28 -3.34 -3.52 z M34.29587500000001 6 l2.2 0 l0 10.8 c0 1 0.44 1.36 1.14 1.36 s1.14 -0.36 1.14 -1.36 l0 -10.8 l2.08 0 l0 10.66 c0 2.24 -1.12 3.52 -3.28 3.52 s-3.28 -1.28 -3.28 -3.52 l0 -10.66 z M58.22381250000001 20 l-2.24 0 c-0.12 -0.36 -0.2 -0.58 -0.2 -1.72 l0 -2.2 c0 -1.3 -0.44 -1.78 -1.44 -1.78 l-0.76 0 l0 5.7 l-2.2 0 l0 -14 l3.32 0 c2.28 0 3.26 1.06 3.26 3.22 l0 1.1 c0 1.44 -0.46 2.36 -1.44 2.82 l0 0.04 c1.1 0.46 1.46 1.5 1.46 2.96 l0 2.16 c0 0.68 0.02 1.18 0.24 1.7 z M54.64381250000001 8 l-1.06 0 l0 4.3 l0.86 0 c0.82 0 1.32 -0.36 1.32 -1.48 l0 -1.38 c0 -1 -0.34 -1.44 -1.12 -1.44 z M86.25968750000001 20 l-0.78 -7.46 l-0.04 0 l-0.78 7.46 l-3.02 0 l-1.56 -14 l2.14 0 l1.16 11.04 l0.04 0 l1.04 -11.04 l2.12 0 l1.08 11.12 l0.04 0 l1.12 -11.12 l1.92 0 l-1.56 14 l-2.92 0 z M102.887625 9.22 l0 7.56 c0 1 0.44 1.38 1.14 1.38 s1.14 -0.38 1.14 -1.38 l0 -7.56 c0 -1 -0.44 -1.38 -1.14 -1.38 s-1.14 0.38 -1.14 1.38 z M100.68762500000001 16.64 l0 -7.28 c0 -2.24 1.18 -3.52 3.34 -3.52 s3.34 1.28 3.34 3.52 l0 7.28 c0 2.24 -1.18 3.52 -3.34 3.52 s-3.34 -1.28 -3.34 -3.52 z M124.65556250000002 20 l-2.24 0 c-0.12 -0.36 -0.2 -0.58 -0.2 -1.72 l0 -2.2 c0 -1.3 -0.44 -1.78 -1.44 -1.78 l-0.76 0 l0 5.7 l-2.2 0 l0 -14 l3.32 0 c2.28 0 3.26 1.06 3.26 3.22 l0 1.1 c0 1.44 -0.46 2.36 -1.44 2.82 l0 0.04 c1.1 0.46 1.46 1.5 1.46 2.96 l0 2.16 c0 0.68 0.02 1.18 0.24 1.7 z M121.07556250000002 8 l-1.06 0 l0 4.3 l0.86 0 c0.82 0 1.32 -0.36 1.32 -1.48 l0 -1.38 c0 -1 -0.34 -1.44 -1.12 -1.44 z M134.88350000000003 20 l0 -14 l2.2 0 l0 12 l3.62 0 l0 2 l-5.82 0 z M150.69143750000003 20 l0 -14 l3.48 0 c2.2 0 3.28 1.22 3.28 3.46 l0 7.08 c0 2.24 -1.08 3.46 -3.28 3.46 l-3.48 0 z M154.13143750000003 8 l-1.24 0 l0 10 l1.24 0 c0.7 0 1.12 -0.36 1.12 -1.36 l0 -7.28 c0 -1 -0.42 -1.36 -1.12 -1.36 z M182.02731250000002 9.22 l0 7.56 c0 1 0.44 1.38 1.14 1.38 s1.14 -0.38 1.14 -1.38 l0 -7.56 c0 -1 -0.44 -1.38 -1.14 -1.38 s-1.14 0.38 -1.14 1.38 z M179.82731250000003 16.64 l0 -7.28 c0 -2.24 1.18 -3.52 3.34 -3.52 s3.34 1.28 3.34 3.52 l0 7.28 c0 2.24 -1.18 3.52 -3.34 3.52 s-3.34 -1.28 -3.34 -3.52 z M199.15525000000002 8 l0 4.22 l2.84 0 l0 2 l-2.84 0 l0 5.78 l-2.2 0 l0 -14 l5.82 0 l0 2 l-3.62 0 z M229.87112500000003 6 l2.24 14 l-2.22 0 l-0.38 -2.54 l-2.7 0 l-0.38 2.54 l-2.02 0 l2.24 -14 l3.22 0 z M228.13112500000003 8.48 l-1.04 7.08 l2.12 0 l-1.04 -7.08 l-0.04 0 z M242.15906250000003 20 l0 -14 l3.48 0 c2.2 0 3.28 1.22 3.28 3.46 l0 7.08 c0 2.24 -1.08 3.46 -3.28 3.46 l-3.48 0 z M245.59906250000003 8 l-1.24 0 l0 10 l1.24 0 c0.7 0 1.12 -0.36 1.12 -1.36 l0 -7.28 c0 -1 -0.42 -1.36 -1.12 -1.36 z M259.247 6 l2.2 0 l0 10.8 c0 1 0.44 1.36 1.14 1.36 s1.14 -0.36 1.14 -1.36 l0 -10.8 l2.08 0 l0 10.66 c0 2.24 -1.12 3.52 -3.28 3.52 s-3.28 -1.28 -3.28 -3.52 l0 -10.66 z M276.3349375 20 l0 -14 l2.2 0 l0 12 l3.62 0 l0 2 l-5.82 0 z M290.502875 8 l0 -2 l6.8 0 l0 2 l-2.3 0 l0 12 l-2.2 0 l0 -12 l-2.3 0 z M323.71875 14.780000000000001 l2.08 0 l0 1.86 c0 2.24 -1.12 3.52 -3.28 3.52 s-3.28 -1.28 -3.28 -3.52 l0 -7.28 c0 -2.24 1.12 -3.52 3.28 -3.52 s3.28 1.28 3.28 3.52 l0 1.36 l-2.08 0 l0 -1.5 c0 -1 -0.44 -1.38 -1.14 -1.38 s-1.14 0.38 -1.14 1.38 l0 7.56 c0 1 0.44 1.36 1.14 1.36 s1.14 -0.36 1.14 -1.36 l0 -2 z M338.18668749999995 9.22 l0 7.56 c0 1 0.44 1.38 1.14 1.38 s1.14 -0.38 1.14 -1.38 l0 -7.56 c0 -1 -0.44 -1.38 -1.14 -1.38 s-1.14 0.38 -1.14 1.38 z M335.98668749999996 16.64 l0 -7.28 c0 -2.24 1.18 -3.52 3.34 -3.52 s3.34 1.28 3.34 3.52 l0 7.28 c0 2.24 -1.18 3.52 -3.34 3.52 s-3.34 -1.28 -3.34 -3.52 z M357.814625 20 l-2.7 -10.14 l-0.04 0 l0 10.14 l-1.98 0 l0 -14 l2.76 0 l2.22 8.38 l0.04 0 l0 -8.38 l1.96 0 l0 14 l-2.26 0 z M370.0425625 8 l0 -2 l6.8 0 l0 2 l-2.3 0 l0 12 l-2.2 0 l0 -12 l-2.3 0 z M389.03049999999996 8 l0 3.9 l3.02 0 l0 2 l-3.02 0 l0 4.1 l3.8 0 l0 2 l-6 0 l0 -14 l6 0 l0 2 l-3.8 0 z M407.9184375 20 l-2.7 -10.14 l-0.04 0 l0 10.14 l-1.98 0 l0 -14 l2.76 0 l2.22 8.38 l0.04 0 l0 -8.38 l1.96 0 l0 14 l-2.26 0 z M420.146375 8 l0 -2 l6.8 0 l0 2 l-2.3 0 l0 12 l-2.2 0 l0 -12 l-2.3 0 z"></path></g>
			</g>
		</svg>
	